<svg width="24" height="24" viewBox="0 0 24 24" fill="none" xmlns="http://www.w3.org/2000/svg"><path d="M12.2233 11.641L12.0003 11.861L11.7763 11.641C11.3601 11.23 10.7987 10.9996 10.2138 10.9996C9.62893 10.9996 9.06757 11.23 8.65134 11.641C8.44476 11.8397 8.28042 12.0781 8.16816 12.3418C8.05591 12.6056 7.99805 12.8893 7.99805 13.176C7.99805 13.4626 8.05591 13.7463 8.16816 14.0101C8.28042 14.2738 8.44476 14.5122 8.65134 14.711L12.0003 18L15.3493 14.711C15.5559 14.5122 15.7203 14.2738 15.8325 14.0101C15.9448 13.7463 16.0026 13.4626 16.0026 13.176C16.0026 12.8893 15.9448 12.6056 15.8325 12.3418C15.7203 12.0781 15.5559 11.8397 15.3493 11.641C14.9329 11.23 14.3714 10.9995 13.7863 10.9995C13.2013 10.9995 12.6397 11.23 12.2233 11.641Z" fill="#8B99AD"></path><path d="M21.7068 11.2932L12.7068 2.2932C12.614 2.20026 12.5038 2.12652 12.3825 2.07621C12.2612 2.0259 12.1311 2 11.9998 2C11.8685 2 11.7384 2.0259 11.6171 2.07621C11.4958 2.12652 11.3856 2.20026 11.2928 2.2932L2.29279 11.2932C2.15298 11.4331 2.05777 11.6112 2.0192 11.8052C1.98064 11.9991 2.00044 12.2002 2.07611 12.3829C2.15178 12.5656 2.27992 12.7217 2.44433 12.8316C2.60874 12.9415 2.80204 13.0002 2.99979 13.0002H3.99979V20.0002C3.99979 21.1032 4.89679 22.0002 5.99979 22.0002H17.9998C19.1028 22.0002 19.9998 21.1032 19.9998 20.0002V13.0002H20.9998C21.1975 13.0002 21.3908 12.9415 21.5552 12.8316C21.7197 12.7217 21.8478 12.5656 21.9235 12.3829C21.9991 12.2002 22.0189 11.9991 21.9804 11.8052C21.9418 11.6112 21.8466 11.4331 21.7068 11.2932ZM18.0008 20.0002H5.99979V10.4152L11.9998 4.4152L17.9998 10.4152V15.0002L18.0008 20.0002Z" fill="#8B99AD"></path></svg>