<svg width="24" height="24" viewBox="0 0 24 24" fill="none" xmlns="http://www.w3.org/2000/svg">
  <path d="M16.97 4.75677C16.9178 4.5466 16.7987 4.35908 16.6307 4.22245C16.4627 4.08582 16.2548 4.00749 16.0384 3.99926C15.822 3.99102 15.6088 4.05333 15.4309 4.17678C15.253 4.30024 15.12 4.47817 15.052 4.68377L11.866 14.2378L8.914 7.59377C8.83363 7.41458 8.70237 7.26296 8.53654 7.15775C8.37071 7.05254 8.17762 6.99838 7.98127 7.00201C7.78491 7.00563 7.59395 7.06687 7.43212 7.17813C7.27028 7.28938 7.14471 7.44574 7.071 7.62777L5.323 11.9998H2V13.9998H5.323C6.146 13.9998 6.875 13.5058 7.179 12.7428L8.048 10.5708L11.085 17.4058C11.247 17.7688 11.606 17.9998 12 17.9998L12.048 17.9988C12.2495 17.9892 12.4433 17.9188 12.604 17.7969C12.7646 17.675 12.8846 17.5072 12.948 17.3158L15.862 8.57377L16.841 12.4848C16.9484 12.9179 17.1978 13.3025 17.5495 13.5771C17.9012 13.8518 18.3348 14.0006 18.781 13.9998H22V11.9998H18.78L16.97 4.75677Z" fill="url(#paint0_linear_3443_1522)"></path>
  <defs>
    <linearGradient id="paint0_linear_3443_1522" x1="3.42857" y1="3.8807" x2="15.8599" y2="21.6603" gradientUnits="userSpaceOnUse">
      <stop stop-color="#01AEE8"></stop>
      <stop offset="1" stop-color="#7270F7"></stop>
    </linearGradient>
  </defs>
</svg>