<svg width="24" height="25" viewBox="0 0 24 25" fill="none" xmlns="http://www.w3.org/2000/svg">
<g clip-path="url(#clip0_383_4834)">
<path d="M12 18.5C15.3137 18.5 18 15.8137 18 12.5C18 9.18629 15.3137 6.5 12 6.5C8.68629 6.5 6 9.18629 6 12.5C6 15.8137 8.68629 18.5 12 18.5Z" stroke="#0C0A09" stroke-width="1.5" stroke-linecap="round" stroke-linejoin="round"/>
<path d="M22 12.5L23 12.5" stroke="#0C0A09" stroke-width="1.5" stroke-linecap="round" stroke-linejoin="round"/>
<path d="M12 2.5V1.5" stroke="#0C0A09" stroke-width="1.5" stroke-linecap="round" stroke-linejoin="round"/>
<path d="M12 23.5V22.5" stroke="#0C0A09" stroke-width="1.5" stroke-linecap="round" stroke-linejoin="round"/>
<path d="M20 20.5L19 19.5" stroke="#0C0A09" stroke-width="1.5" stroke-linecap="round" stroke-linejoin="round"/>
<path d="M20 4.5L19 5.5" stroke="#0C0A09" stroke-width="1.5" stroke-linecap="round" stroke-linejoin="round"/>
<path d="M4 20.5L5 19.5" stroke="#0C0A09" stroke-width="1.5" stroke-linecap="round" stroke-linejoin="round"/>
<path d="M4 4.5L5 5.5" stroke="#0C0A09" stroke-width="1.5" stroke-linecap="round" stroke-linejoin="round"/>
<path d="M1 12.5L2 12.5" stroke="#0C0A09" stroke-width="1.5" stroke-linecap="round" stroke-linejoin="round"/>
</g>
<defs>
<clipPath id="clip0_383_4834">
<rect width="24" height="24" fill="white" transform="translate(0 0.5)"/>
</clipPath>
</defs>
</svg>
